<svg width="940" height="660" viewBox="0 0 940 660" fill="none" xmlns="http://www.w3.org/2000/svg">
<path d="M388.66 117.92C262.03 166.53 250.43 291.02 214.12 349.16C177.38 407.99 93.21 440.45 104.72 470.43C116.23 500.41 200.5 468.21 267.17 487.34C333.05 506.24 424.97 591 551.6 542.39C616.11 517.63 662.82 466.66 684.3 406.29C686.61 399.81 682.29 392.88 675.44 392.24C671.18 391.84 667.09 394.07 665.17 397.89C645.74 436.59 612.41 468.46 568.79 485.2C496.78 512.84 417.99 491.14 369.6 436.71C358.61 424.35 349.21 410.28 341.79 394.73C339.75 390.45 337.81 386.1 336.09 381.6C334.36 377.1 332.89 372.57 331.54 368.02C369.6 350.28 413.52 331.49 463.31 312.38C512.13 293.64 556.56 278.44 596.12 266.28C622.88 258.06 647.41 251.22 669.56 245.63C671.16 245.23 672.74 244.83 674.31 244.44C677.66 243.61 681.1 245.4 682.34 248.62L682.36 248.68C683.09 250.59 683.72 252.51 684.4 254.43C688.78 266.82 692.06 279.34 694.23 291.89C695.18 297.38 701.18 300.37 706.1 297.73C724.28 287.97 740.91 278.45 755.77 269.29C811.14 235.19 841.84 206.27 835.54 189.88C829.24 173.49 787.09 172.54 723.12 184.24C702.79 187.96 680.25 192.96 655.96 199.15C651.76 200.22 647.51 201.33 643.21 202.47C622.77 207.89 601.21 214.1 578.76 221.05C537.01 233.98 492.22 249.47 445.98 267.22C402.72 283.83 361.72 301.05 324.12 318.21C323.66 245.38 367.69 176.53 439.7 148.89C483.31 132.15 529.41 133.52 569.75 149.29C573.73 150.85 578.26 149.77 581.17 146.62C585.83 141.56 584.4 133.53 578.35 130.25C521.99 99.78 453.17 93.16 388.66 117.92Z" fill="black"/>
</svg>
