<svg id="Layer_1" data-name="Layer 1" xmlns="http://www.w3.org/2000/svg" width="1881.13" height="541.6257" viewBox="0 0 1881.13 541.6257"><path d="M31.0945,506.0407V29.2343H325.6406v75.4H111.9184V231.0227H305.57v73.23H111.9184V430.6412H325.6406v75.3995Z"/><path d="M548.0417,506.0407H469.93L337.0317,178.4058H423.28L510.0707,412.198l84.6208-233.7922H676.6Z"/><path d="M712.9434,506.0407V178.4058h74.8572v41.7681c18.9855-33.6315,59.6686-50.99,97.0972-50.99,42.853,0,80.8239,19.5278,98.1818,58.0413,25.4945-42.853,64.0084-58.0413,106.3185-58.0413,59.1262,0,115.54,37.4286,115.54,124.2193V506.0407h-75.3995V306.4222c0-38.5132-19.5278-67.2629-63.4654-67.2629-41.2255,0-67.8053,32.5465-67.8053,72.6874v194.194H921.7841V306.4222c0-37.4286-18.9855-67.2629-63.4654-67.2629-41.7678,0-67.8052,30.9193-67.8052,72.6874v194.194Z"/><path d="M1580.85,342.2233c0,100.894-72.145,174.1236-170.3268,174.1236-97.6395,0-169.2416-73.23-169.2416-174.1236,0-100.3518,72.145-173.5814,169.2416-173.5814C1508.7057,168.6419,1580.85,241.8715,1580.85,342.2233Zm-78.6541,0c0-67.8053-42.853-103.064-91.6727-103.064-47.7352,0-91.6728,34.7164-91.6728,103.064s43.9376,104.1488,91.6728,104.1488C1458.8007,446.3721,1502.196,410.5711,1502.196,342.2233Z"/><path d="M1668.1837,398.6373c2.7122,29.8343,24.9529,55.8714,66.7206,55.8714,32.5465,0,48.82-17.3582,48.82-37.4286,0-17.3582-11.9335-30.9192-38.5139-36.3436l-48.2768-10.8489c-58.041-13.0187-87.8753-50.447-87.8753-95.47,0-56.9563,52.6166-105.7761,120.4218-105.7761,91.6721,0,120.9648,59.1263,126.3892,91.6728L1790.2331,279.3c-2.7122-18.9854-16.8162-48.82-60.7532-48.82-27.6651,0-47.1922,17.3582-47.1922,37.4286,0,17.3582,13.0181,30.3766,33.0895,34.1738l49.9044,10.3065c61.8378,13.561,94.3843,50.99,94.3843,99.2668,0,49.9047-40.14,104.6911-123.677,104.6911-94.9273,0-131.2706-61.8385-135.0681-98.7244Z"/></svg>