<svg width="351" height="78" viewBox="0 0 351 78" fill="none" xmlns="http://www.w3.org/2000/svg">
<path d="M48.509 2.57936C26.9566 10.8548 24.9823 32.0483 18.8023 41.9461C12.5492 51.9615 -1.77656 57.4875 0.18244 62.5914C2.14144 67.6952 16.4842 62.2134 27.8314 65.4702C39.0442 68.6877 54.689 83.1175 76.2414 74.842C87.221 70.6268 95.1711 61.9496 98.827 51.6721C99.2201 50.5689 98.4849 49.3891 97.319 49.2802C96.5939 49.2121 95.8978 49.5917 95.5711 50.242C92.2641 56.8304 86.5913 62.256 79.1672 65.1059C66.9111 69.8113 53.501 66.1171 45.265 56.8508C43.3945 54.7466 41.7946 52.3513 40.5318 49.7041C40.1845 48.9754 39.8544 48.2349 39.5616 47.4688C39.2672 46.7027 39.017 45.9315 38.7872 45.1569C45.265 42.1368 52.7402 38.938 61.2145 35.6846C69.5236 32.4943 77.0856 29.9066 83.8187 27.8365C88.3733 26.4371 92.5483 25.2726 96.3182 24.321C96.5905 24.2529 96.8595 24.1848 97.1267 24.1184C97.6968 23.9771 98.2823 24.2818 98.4934 24.83L98.4968 24.8402C98.621 25.1654 98.7283 25.4922 98.844 25.8191C99.5895 27.9284 100.148 30.0598 100.517 32.1964C100.679 33.131 101.7 33.64 102.537 33.1906C105.632 31.529 108.462 29.9083 110.991 28.3489C120.415 22.5436 125.64 17.6202 124.568 14.83C123.497 12.038 116.322 11.878 105.434 13.8698C101.974 14.5031 98.1377 15.3543 94.0035 16.4081C93.2887 16.5903 92.5653 16.7792 91.8335 16.9733C88.3546 17.896 84.685 18.9532 80.8641 20.1364C73.7582 22.3377 66.135 24.9747 58.2649 27.9965C50.9021 30.8242 43.9238 33.7558 37.5243 36.6771C37.446 24.2784 44.9399 12.5572 57.196 7.85175C64.6185 5.0019 72.4647 5.23514 79.3306 7.91985C80.0079 8.18543 80.779 8.00157 81.2742 7.46531C82.0674 6.60558 81.824 5.23684 80.7943 4.67845C71.2018 -0.50883 59.4886 -1.63583 48.509 2.57936Z" fill="#2D2925"/>
<path d="M174.487 54.624H152.89V41.4963H173.325C173.979 41.4963 174.415 41.0562 174.415 40.3962V33.7223C174.415 33.0623 173.979 32.6222 173.325 32.6222H152.89V21.0347H174.415C175.069 21.0347 175.505 20.5946 175.505 19.9346V13.2607C175.505 12.6007 175.069 12.1606 174.415 12.1606H144.025C143.371 12.1606 142.935 12.6007 142.935 13.2607V62.3979C142.935 63.058 143.371 63.498 144.025 63.498H174.487C175.141 63.498 177.419 63.058 177.419 62.3979V55.7241C177.419 55.064 175.141 54.624 174.487 54.624Z" fill="#2D2925"/>
<path d="M206.188 28.4419L197.541 52.2038L188.821 28.4419C188.603 27.8552 188.095 27.5619 187.513 27.5619H180.029C179.23 27.5619 178.866 28.0019 179.157 28.8086L192.527 62.6179C192.745 63.2046 193.254 63.498 193.835 63.498H201.247C201.828 63.498 202.337 63.2046 202.555 62.6179L215.852 28.8086C216.143 28.0019 215.779 27.5619 214.98 27.5619H207.496C206.914 27.5619 206.406 27.8552 206.188 28.4419Z" fill="#2D2925"/>
<path d="M265.176 26.7551C259.363 26.7551 255.149 29.542 252.605 33.429C250.353 29.102 246.356 26.7551 241.633 26.7551C236.474 26.7551 232.696 29.6154 230.37 33.429V33.3556L230.08 28.6619C230.007 28.0019 229.644 27.5619 228.99 27.5619H221.869C221.215 27.5619 220.779 28.0019 220.779 28.6619V62.3979C220.779 63.058 221.215 63.498 221.869 63.498H229.28C229.934 63.498 230.37 63.058 230.37 62.3979V42.743C230.37 41.0562 232.841 35.7025 238.218 35.7025C241.706 35.7025 244.903 37.756 244.903 43.6965V62.3979C244.903 63.058 245.339 63.498 245.993 63.498H253.405C254.059 63.498 254.495 63.058 254.495 62.3979V42.5964C254.495 40.0295 256.965 35.7025 262.342 35.7025C265.757 35.7025 268.955 37.756 268.955 43.6965V62.3979C268.955 63.058 269.391 63.498 270.045 63.498H277.456C278.11 63.498 278.546 63.058 278.546 62.3979V41.9363C278.546 32.3289 272.951 26.7551 265.176 26.7551Z" fill="#2D2925"/>
<path d="M301.219 64.4514C311.464 64.4514 319.675 56.1641 319.675 45.6033C319.675 35.0424 311.464 26.7551 301.219 26.7551C290.973 26.7551 282.762 35.0424 282.762 45.6033C282.762 56.1641 290.973 64.4514 301.219 64.4514ZM301.219 55.504C296.06 55.504 291.991 51.3971 291.991 45.6033C291.991 39.8095 296.06 35.7025 301.219 35.7025C306.305 35.7025 310.447 39.8095 310.447 45.6033C310.447 51.3971 306.305 55.504 301.219 55.504Z" fill="#2D2925"/>
<path d="M333.09 37.6093C333.09 35.7758 334.762 34.5291 337.014 34.5291C339.557 34.5291 341.229 35.4825 343.99 37.316C344.644 37.8293 345.152 37.976 345.588 37.3893L348.35 33.7223C348.713 33.2823 348.858 32.6956 348.422 32.1822C345.443 28.6619 340.793 26.7551 336.215 26.7551C329.82 26.7551 323.862 30.7888 323.862 37.6826C323.862 49.7836 341.083 47.5834 341.083 53.3039C341.083 55.5774 338.831 56.3108 336.505 56.3108C333.672 56.3108 330.547 54.9173 327.641 53.0105C326.987 52.4971 326.478 52.3505 326.042 52.9372L323.208 56.9708C322.917 57.4109 322.772 57.9242 323.208 58.4376C325.751 61.4445 330.692 64.4514 336.796 64.4514C343.336 64.4514 350.384 60.4178 350.384 53.4505C350.384 40.2495 333.09 43.4764 333.09 37.6093Z" fill="#2D2925"/>
</svg>
